{
  "accessors": [
    {
      "bufferView": 2,
      "componentType": 5126,
      "count": 1366,
      "max": [1.0199999809265137, 0.7699999809265137, 7.900000095367432],
      "min": [-1.0299999713897705, -0.9100009799003601, -0.029999999329447746],
      "type": "VEC3"
    },
    {
      "bufferView": 2,
      "byteOffset": 16392,
      "componentType": 5126,
      "count": 1366,
      "max": [0.9993948936462402, 0.9999779462814331, 1.0],
      "min": [-0.9994226694107056, -0.9999281764030457, -1.0],
      "type": "VEC3"
    },
    {
      "bufferView": 1,
      "componentType": 5126,
      "count": 1366,
      "max": [0.9960780143737793, 0.994763970375061],
      "min": [0.00392200006172061, 0.005235999822616577],
      "type": "VEC2"
    },
    {
      "bufferView": 0,
      "componentType": 5125,
      "count": 1926,
      "type": "SCALAR"
    },
    {
      "bufferView": 2,
      "byteOffset": 32784,
      "componentType": 5126,
      "count": 168,
      "max": [0.12999999523162842, 0.7699999809265137, 7.099999904632568],
      "min": [-0.12999999523162842, 0.5400000214576721, 4.239999771118164],
      "type": "VEC3"
    },
    {
      "bufferView": 2,
      "byteOffset": 34800,
      "componentType": 5126,
      "count": 168,
      "max": [0.999828577041626, 0.9998286366462708, 1.0],
      "min": [-0.999828577041626, -1.0, -1.0],
      "type": "VEC3"
    },
    {
      "bufferView": 1,
      "byteOffset": 10928,
      "componentType": 5126,
      "count": 168,
      "max": [0.9743589758872986, 0.9677420258522034],
      "min": [0.025640999898314476, 0.03225800022482872],
      "type": "VEC2"
    },
    {
      "bufferView": 0,
      "byteOffset": 7704,
      "componentType": 5125,
      "count": 246,
      "type": "SCALAR"
    }
  ],
  "asset": {
    "extras": {
      "author": "U.A.C.WAD (https://sketchfab.com/hilalarican23)",
      "license": "CC-BY-4.0 (http://creativecommons.org/licenses/by/4.0/)",
      "source": "https://sketchfab.com/3d-models/lara-croft-5da6d7efd93c40d9a81ece8c546c6ab6",
      "title": "Lara croft"
    },
    "generator": "Sketchfab-15.19.0",
    "version": "2.0"
  },
  "bufferViews": [
    {
      "buffer": 0,
      "byteLength": 8688,
      "name": "floatBufferViews",
      "target": 34963
    },
    {
      "buffer": 0,
      "byteLength": 12272,
      "byteOffset": 8688,
      "byteStride": 8,
      "name": "floatBufferViews",
      "target": 34962
    },
    {
      "buffer": 0,
      "byteLength": 36816,
      "byteOffset": 20960,
      "byteStride": 12,
      "name": "floatBufferViews",
      "target": 34962
    }
  ],
  "buffers": [
    {
      "byteLength": 57776,
      "uri": "scene.bin"
    }
  ],
  "images": [
    {
      "uri": "tile0_baseColor.png"
    },
    {
      "uri": "tile0.001_baseColor.png"
    }
  ],
  "materials": [
    {
      "doubleSided": true,
      "name": "tile0",
      "pbrMetallicRoughness": {
        "baseColorTexture": {
          "index": 0
        },
        "roughnessFactor": 0.7481927563969718
      }
    },
    {
      "doubleSided": true,
      "name": "tile0.001",
      "pbrMetallicRoughness": {
        "baseColorTexture": {
          "index": 1
        },
        "metallicFactor": 0.9066694298496909,
        "roughnessFactor": 0.8274310931233314
      }
    }
  ],
  "meshes": [
    {
      "name": "Object_0",
      "primitives": [
        {
          "attributes": {
            "NORMAL": 1,
            "POSITION": 0,
            "TEXCOORD_0": 2
          },
          "indices": 3,
          "material": 0,
          "mode": 4
        }
      ]
    },
    {
      "name": "Object_1",
      "primitives": [
        {
          "attributes": {
            "NORMAL": 5,
            "POSITION": 4,
            "TEXCOORD_0": 6
          },
          "indices": 7,
          "material": 1,
          "mode": 4
        }
      ]
    }
  ],
  "nodes": [
    {
      "children": [1],
      "matrix": [
        1.0, 0.0, 0.0, 0.0, 0.0, 2.220446049250313e-16, -1.0, 0.0, 0.0, 1.0, 2.220446049250313e-16, 0.0, 0.0, 0.0, 0.0,
        1.0
      ],
      "name": "Sketchfab_model"
    },
    {
      "children": [2, 3],
      "name": "b45d5d0ee8b9444c90437e9ddd6ce645.obj.cleaner.materialmerger.gles"
    },
    {
      "mesh": 0,
      "name": "Object_2"
    },
    {
      "mesh": 1,
      "name": "Object_3"
    }
  ],
  "samplers": [
    {
      "magFilter": 9728,
      "minFilter": 9986,
      "wrapS": 10497,
      "wrapT": 10497
    },
    {
      "magFilter": 9729,
      "minFilter": 9987,
      "wrapS": 10497,
      "wrapT": 10497
    }
  ],
  "scene": 0,
  "scenes": [
    {
      "name": "Sketchfab_Scene",
      "nodes": [0]
    }
  ],
  "textures": [
    {
      "sampler": 0,
      "source": 0
    },
    {
      "sampler": 1,
      "source": 1
    }
  ]
}
